{
  "accessors": [
    {
      "name": "73_1_0_positions",
      "componentType": 5126,
      "count": 32,
      "min": [
        -30.567399978637695,
        48.399600982666016,
        -11.059900283813477
      ],
      "max": [
        30.65999984741211,
        48.399600982666016,
        11.036199569702148
      ],
      "type": "VEC3",
      "bufferView": 0,
      "byteOffset": 0
    },
    {
      "name": "73_1_0_normals",
      "componentType": 5126,
      "count": 32,
      "min": [
        0,
        1,
        0
      ],
      "max": [
        0,
        1,
        0
      ],
      "type": "VEC3",
      "bufferView": 1,
      "byteOffset": 0
    },
    {
      "name": "73_1_0_texcoords",
      "componentType": 5126,
      "count": 32,
      "min": [
        -5.8856000900268555,
        -1.452299952507019
      ],
      "max": [
        6.993500232696533,
        2.4247000217437744
      ],
      "type": "VEC2",
      "bufferView": 2,
      "byteOffset": 0
    },
    {
      "name": "73_1_0_indices",
      "componentType": 5123,
      "count": 90,
      "min": [
        0
      ],
      "max": [
        31
      ],
      "type": "SCALAR",
      "bufferView": 3,
      "byteOffset": 0
    },
    {
      "name": "73_1_1_positions",
      "componentType": 5126,
      "count": 196,
      "min": [
        -30.75429916381836,
        0,
        -11.246700286865234
      ],
      "max": [
        30.846799850463867,
        48.7052001953125,
        11.223099708557129
      ],
      "type": "VEC3",
      "bufferView": 0,
      "byteOffset": 384
    },
    {
      "name": "73_1_1_normals",
      "componentType": 5126,
      "count": 196,
      "min": [
        -0.9949166774749756,
        0,
        -0.9949166774749756
      ],
      "max": [
        0.9949166774749756,
        0,
        0.9949166774749756
      ],
      "type": "VEC3",
      "bufferView": 1,
      "byteOffset": 384
    },
    {
      "name": "73_1_1_texcoords",
      "componentType": 5126,
      "count": 196,
      "min": [
        -3.503999948501587,
        -15.991499900817871
      ],
      "max": [
        4.576399803161621,
        0.9994999766349792
      ],
      "type": "VEC2",
      "bufferView": 2,
      "byteOffset": 256
    },
    {
      "name": "73_1_1_indices",
      "componentType": 5123,
      "count": 294,
      "min": [
        0
      ],
      "max": [
        195
      ],
      "type": "SCALAR",
      "bufferView": 3,
      "byteOffset": 180
    },
    {
      "name": "73_1_2_positions",
      "componentType": 5126,
      "count": 16,
      "min": [
        -26.68630027770996,
        0,
        -11.246700286865234
      ],
      "max": [
        25.437000274658203,
        48.201900482177734,
        -6.013299942016602
      ],
      "type": "VEC3",
      "bufferView": 0,
      "byteOffset": 2736
    },
    {
      "name": "73_1_2_normals",
      "componentType": 5126,
      "count": 16,
      "min": [
        -0.10070168972015381,
        0,
        -0.9949166774749756
      ],
      "max": [
        -0.10070168972015381,
        0,
        -0.9949166774749756
      ],
      "type": "VEC3",
      "bufferView": 1,
      "byteOffset": 2736
    },
    {
      "name": "73_1_2_texcoords",
      "componentType": 5126,
      "count": 16,
      "min": [
        0.0005000000237487257,
        -7.495800018310547
      ],
      "max": [
        0.9994999766349792,
        0.9958000183105469
      ],
      "type": "VEC2",
      "bufferView": 2,
      "byteOffset": 1824
    },
    {
      "name": "73_1_2_indices",
      "componentType": 5123,
      "count": 24,
      "min": [
        0
      ],
      "max": [
        15
      ],
      "type": "SCALAR",
      "bufferView": 3,
      "byteOffset": 768
    },
    {
      "name": "73_1_3_positions",
      "componentType": 5126,
      "count": 16,
      "min": [
        -30.75429916381836,
        0,
        -10.679100036621094
      ],
      "max": [
        29.898799896240234,
        48.201900482177734,
        -4.539599895477295
      ],
      "type": "VEC3",
      "bufferView": 0,
      "byteOffset": 2928
    },
    {
      "name": "73_1_3_normals",
      "componentType": 5126,
      "count": 16,
      "min": [
        -0.10070168972015381,
        0,
        -0.9949166774749756
      ],
      "max": [
        -0.10070168972015381,
        0,
        -0.9949166774749756
      ],
      "type": "VEC3",
      "bufferView": 1,
      "byteOffset": 2928
    },
    {
      "name": "73_1_3_texcoords",
      "componentType": 5126,
      "count": 16,
      "min": [
        0.0005000000237487257,
        -7.495800018310547
      ],
      "max": [
        1.9989999532699585,
        0.9958000183105469
      ],
      "type": "VEC2",
      "bufferView": 2,
      "byteOffset": 1952
    },
    {
      "name": "73_1_3_indices",
      "componentType": 5123,
      "count": 24,
      "min": [
        0
      ],
      "max": [
        15
      ],
      "type": "SCALAR",
      "bufferView": 3,
      "byteOffset": 816
    },
    {
      "name": "73_1_4_positions",
      "componentType": 5126,
      "count": 8,
      "min": [
        -30.75429916381836,
        0,
        -10.679100036621094
      ],
      "max": [
        30.846799850463867,
        48.201900482177734,
        4.825200080871582
      ],
      "type": "VEC3",
      "bufferView": 0,
      "byteOffset": 3120
    },
    {
      "name": "73_1_4_normals",
      "componentType": 5126,
      "count": 8,
      "min": [
        -0.9949166774749756,
        0,
        -0.10070168972015381
      ],
      "max": [
        0.9949166774749756,
        0,
        0.10070168972015381
      ],
      "type": "VEC3",
      "bufferView": 1,
      "byteOffset": 3120
    },
    {
      "name": "73_1_4_texcoords",
      "componentType": 5126,
      "count": 8,
      "min": [
        0.0005000000237487257,
        -7.495800018310547
      ],
      "max": [
        0.9994999766349792,
        0.9958000183105469
      ],
      "type": "VEC2",
      "bufferView": 2,
      "byteOffset": 2080
    },
    {
      "name": "73_1_4_indices",
      "componentType": 5123,
      "count": 12,
      "min": [
        0
      ],
      "max": [
        7
      ],
      "type": "SCALAR",
      "bufferView": 3,
      "byteOffset": 864
    },
    {
      "name": "73_1_5_positions",
      "componentType": 5126,
      "count": 8,
      "min": [
        -27.607200622558594,
        0,
        -1.2285000085830688
      ],
      "max": [
        30.641000747680664,
        48.201900482177734,
        11.223099708557129
      ],
      "type": "VEC3",
      "bufferView": 0,
      "byteOffset": 3216
    },
    {
      "name": "73_1_5_normals",
      "componentType": 5126,
      "count": 8,
      "min": [
        -0.9949166774749756,
        0,
        -0.10070168972015381
      ],
      "max": [
        0.9949166774749756,
        0,
        0.10070168972015381
      ],
      "type": "VEC3",
      "bufferView": 1,
      "byteOffset": 3216
    },
    {
      "name": "73_1_5_texcoords",
      "componentType": 5126,
      "count": 8,
      "min": [
        0.0005000000237487257,
        -7.495800018310547
      ],
      "max": [
        0.9994999766349792,
        0.9958000183105469
      ],
      "type": "VEC2",
      "bufferView": 2,
      "byteOffset": 2144
    },
    {
      "name": "73_1_5_indices",
      "componentType": 5123,
      "count": 12,
      "min": [
        0
      ],
      "max": [
        7
      ],
      "type": "SCALAR",
      "bufferView": 3,
      "byteOffset": 888
    },
    {
      "name": "73_1_6_positions",
      "componentType": 5126,
      "count": 8,
      "min": [
        -26.93709945678711,
        0,
        5.1082000732421875
      ],
      "max": [
        30.641000747680664,
        48.201900482177734,
        11.223099708557129
      ],
      "type": "VEC3",
      "bufferView": 0,
      "byteOffset": 3312
    },
    {
      "name": "73_1_6_normals",
      "componentType": 5126,
      "count": 8,
      "min": [
        0.10070168972015381,
        0,
        0.9949166774749756
      ],
      "max": [
        0.10070168972015381,
        0,
        0.9949166774749756
      ],
      "type": "VEC3",
      "bufferView": 1,
      "byteOffset": 3312
    },
    {
      "name": "73_1_6_texcoords",
      "componentType": 5126,
      "count": 8,
      "min": [
        0.0010000000474974513,
        -7.495800018310547
      ],
      "max": [
        1.9989999532699585,
        0.9958000183105469
      ],
      "type": "VEC2",
      "bufferView": 2,
      "byteOffset": 2208
    },
    {
      "name": "73_1_6_indices",
      "componentType": 5123,
      "count": 12,
      "min": [
        0
      ],
      "max": [
        7
      ],
      "type": "SCALAR",
      "bufferView": 3,
      "byteOffset": 912
    },
    {
      "name": "73_1_7_positions",
      "componentType": 5126,
      "count": 4,
      "min": [
        -4.1971001625061035,
        0,
        -5.406799793243408
      ],
      "max": [
        3.6089999675750732,
        48.201900482177734,
        -4.616600036621094
      ],
      "type": "VEC3",
      "bufferView": 0,
      "byteOffset": 3408
    },
    {
      "name": "73_1_7_normals",
      "componentType": 5126,
      "count": 4,
      "min": [
        -0.10070168972015381,
        0,
        -0.9949166774749756
      ],
      "max": [
        -0.10070168972015381,
        0,
        -0.9949166774749756
      ],
      "type": "VEC3",
      "bufferView": 1,
      "byteOffset": 3408
    },
    {
      "name": "73_1_7_texcoords",
      "componentType": 5126,
      "count": 4,
      "min": [
        0.0005000000237487257,
        -7.495800018310547
      ],
      "max": [
        0.9994999766349792,
        0.9958000183105469
      ],
      "type": "VEC2",
      "bufferView": 2,
      "byteOffset": 2272
    },
    {
      "name": "73_1_7_indices",
      "componentType": 5123,
      "count": 6,
      "min": [
        0
      ],
      "max": [
        3
      ],
      "type": "SCALAR",
      "bufferView": 3,
      "byteOffset": 936
    },
    {
      "name": "73_1_8_positions",
      "componentType": 5126,
      "count": 192,
      "min": [
        -30.75429916381836,
        48.399600982666016,
        -11.246700286865234
      ],
      "max": [
        30.846799850463867,
        48.7052001953125,
        11.223099708557129
      ],
      "type": "VEC3",
      "bufferView": 0,
      "byteOffset": 3456
    },
    {
      "name": "73_1_8_normals",
      "componentType": 5126,
      "count": 192,
      "min": [
        -0.9949166774749756,
        0,
        -0.9949166774749756
      ],
      "max": [
        0.9949166774749756,
        1,
        0.9949166774749756
      ],
      "type": "VEC3",
      "bufferView": 1,
      "byteOffset": 3456
    },
    {
      "name": "73_1_8_texcoords",
      "componentType": 5126,
      "count": 192,
      "min": [
        -6.022299766540527,
        -1.9646999835968018
      ],
      "max": [
        7.022299766540527,
        2.9646999835968018
      ],
      "type": "VEC2",
      "bufferView": 2,
      "byteOffset": 2304
    },
    {
      "name": "73_1_8_indices",
      "componentType": 5123,
      "count": 384,
      "min": [
        0
      ],
      "max": [
        191
      ],
      "type": "SCALAR",
      "bufferView": 3,
      "byteOffset": 948
    }
  ],
  "asset": {
    "generator": "obj2gltf",
    "version": "2.0"
  },
  "buffers": [
    {
      "name": "73",
      "byteLength": 475660,
      "uri": "data:application/octet-stream;base64,"
    }
  ],
  "bufferViews": [
    {
      "name": "bufferView_0",
      "buffer": 0,
      "byteLength": 5760,
      "byteOffset": 0,
      "byteStride": 12,
      "target": 34962
    },
    {
      "name": "bufferView_1",
      "buffer": 0,
      "byteLength": 5760,
      "byteOffset": 5760,
      "byteStride": 12,
      "target": 34962
    },
    {
      "name": "bufferView_2",
      "buffer": 0,
      "byteLength": 3840,
      "byteOffset": 11520,
      "byteStride": 8,
      "target": 34962
    },
    {
      "name": "bufferView_3",
      "buffer": 0,
      "byteLength": 1716,
      "byteOffset": 15360,
      "target": 34963
    },
    {
      "buffer": 0,
      "byteOffset": 17076,
      "byteLength": 47727
    },
    {
      "buffer": 0,
      "byteOffset": 64803,
      "byteLength": 15029
    },
    {
      "buffer": 0,
      "byteOffset": 79832,
      "byteLength": 37401
    },
    {
      "buffer": 0,
      "byteOffset": 117233,
      "byteLength": 54276
    },
    {
      "buffer": 0,
      "byteOffset": 171509,
      "byteLength": 27693
    },
    {
      "buffer": 0,
      "byteOffset": 199202,
      "byteLength": 34961
    },
    {
      "buffer": 0,
      "byteOffset": 234163,
      "byteLength": 145425
    },
    {
      "buffer": 0,
      "byteOffset": 379588,
      "byteLength": 48285
    },
    {
      "buffer": 0,
      "byteOffset": 427873,
      "byteLength": 47787
    }
  ],
  "images": [
    {
      "name": "BLDSQ_JDZX_T052",
      "mimeType": "image/jpeg",
      "bufferView": 4
    },
    {
      "name": "yaxing-22",
      "mimeType": "image/jpeg",
      "bufferView": 5
    },
    {
      "name": "yaxing-11",
      "mimeType": "image/jpeg",
      "bufferView": 6
    },
    {
      "name": "yaxing-13",
      "mimeType": "image/jpeg",
      "bufferView": 7
    },
    {
      "name": "yaxing-18",
      "mimeType": "image/jpeg",
      "bufferView": 8
    },
    {
      "name": "yaxing-19",
      "mimeType": "image/jpeg",
      "bufferView": 9
    },
    {
      "name": "yaxing-17",
      "mimeType": "image/jpeg",
      "bufferView": 10
    },
    {
      "name": "yaxing-12",
      "mimeType": "image/jpeg",
      "bufferView": 11
    },
    {
      "name": "BLDSQ_JDZX_T051",
      "mimeType": "image/jpeg",
      "bufferView": 12
    }
  ],
  "materials": [
    {
      "name": "Material__433",
      "pbrMetallicRoughness": {
        "baseColorTexture": {
          "index": 0
        },
        "baseColorFactor": [
          1,
          1,
          1,
          1
        ],
        "metallicFactor": 0,
        "roughnessFactor": 0.99
      },
      "emissiveFactor": [
        0,
        0,
        0
      ],
      "alphaMode": "OPAQUE",
      "doubleSided": false
    },
    {
      "name": "Material__404",
      "pbrMetallicRoughness": {
        "baseColorTexture": {
          "index": 1
        },
        "baseColorFactor": [
          1,
          1,
          1,
          1
        ],
        "metallicFactor": 0,
        "roughnessFactor": 0.99
      },
      "emissiveFactor": [
        0,
        0,
        0
      ],
      "alphaMode": "OPAQUE",
      "doubleSided": false
    },
    {
      "name": "Material__224",
      "pbrMetallicRoughness": {
        "baseColorTexture": {
          "index": 2
        },
        "baseColorFactor": [
          1,
          1,
          1,
          1
        ],
        "metallicFactor": 0,
        "roughnessFactor": 0.99
      },
      "emissiveFactor": [
        0,
        0,
        0
      ],
      "alphaMode": "OPAQUE",
      "doubleSided": false
    },
    {
      "name": "Material__262",
      "pbrMetallicRoughness": {
        "baseColorTexture": {
          "index": 3
        },
        "baseColorFactor": [
          1,
          1,
          1,
          1
        ],
        "metallicFactor": 0,
        "roughnessFactor": 0.99
      },
      "emissiveFactor": [
        0,
        0,
        0
      ],
      "alphaMode": "OPAQUE",
      "doubleSided": false
    },
    {
      "name": "Material__339",
      "pbrMetallicRoughness": {
        "baseColorTexture": {
          "index": 4
        },
        "baseColorFactor": [
          1,
          1,
          1,
          1
        ],
        "metallicFactor": 0,
        "roughnessFactor": 0.99
      },
      "emissiveFactor": [
        0,
        0,
        0
      ],
      "alphaMode": "OPAQUE",
      "doubleSided": false
    },
    {
      "name": "Material__352",
      "pbrMetallicRoughness": {
        "baseColorTexture": {
          "index": 5
        },
        "baseColorFactor": [
          1,
          1,
          1,
          1
        ],
        "metallicFactor": 0,
        "roughnessFactor": 0.99
      },
      "emissiveFactor": [
        0,
        0,
        0
      ],
      "alphaMode": "OPAQUE",
      "doubleSided": false
    },
    {
      "name": "Material__326",
      "pbrMetallicRoughness": {
        "baseColorTexture": {
          "index": 6
        },
        "baseColorFactor": [
          1,
          1,
          1,
          1
        ],
        "metallicFactor": 0,
        "roughnessFactor": 0.99
      },
      "emissiveFactor": [
        0,
        0,
        0
      ],
      "alphaMode": "OPAQUE",
      "doubleSided": false
    },
    {
      "name": "Material__236",
      "pbrMetallicRoughness": {
        "baseColorTexture": {
          "index": 7
        },
        "baseColorFactor": [
          1,
          1,
          1,
          1
        ],
        "metallicFactor": 0,
        "roughnessFactor": 0.99
      },
      "emissiveFactor": [
        0,
        0,
        0
      ],
      "alphaMode": "OPAQUE",
      "doubleSided": false
    },
    {
      "name": "Material__418",
      "pbrMetallicRoughness": {
        "baseColorTexture": {
          "index": 8
        },
        "baseColorFactor": [
          1,
          1,
          1,
          1
        ],
        "metallicFactor": 0,
        "roughnessFactor": 0.99
      },
      "emissiveFactor": [
        0,
        0,
        0
      ],
      "alphaMode": "OPAQUE",
      "doubleSided": false
    }
  ],
  "meshes": [
    {
      "name": "73_1",
      "primitives": [
        {
          "attributes": {
            "POSITION": 0,
            "NORMAL": 1,
            "TEXCOORD_0": 2
          },
          "indices": 3,
          "material": 0,
          "mode": 4
        },
        {
          "attributes": {
            "POSITION": 4,
            "NORMAL": 5,
            "TEXCOORD_0": 6
          },
          "indices": 7,
          "material": 1,
          "mode": 4
        },
        {
          "attributes": {
            "POSITION": 8,
            "NORMAL": 9,
            "TEXCOORD_0": 10
          },
          "indices": 11,
          "material": 2,
          "mode": 4
        },
        {
          "attributes": {
            "POSITION": 12,
            "NORMAL": 13,
            "TEXCOORD_0": 14
          },
          "indices": 15,
          "material": 3,
          "mode": 4
        },
        {
          "attributes": {
            "POSITION": 16,
            "NORMAL": 17,
            "TEXCOORD_0": 18
          },
          "indices": 19,
          "material": 4,
          "mode": 4
        },
        {
          "attributes": {
            "POSITION": 20,
            "NORMAL": 21,
            "TEXCOORD_0": 22
          },
          "indices": 23,
          "material": 5,
          "mode": 4
        },
        {
          "attributes": {
            "POSITION": 24,
            "NORMAL": 25,
            "TEXCOORD_0": 26
          },
          "indices": 27,
          "material": 6,
          "mode": 4
        },
        {
          "attributes": {
            "POSITION": 28,
            "NORMAL": 29,
            "TEXCOORD_0": 30
          },
          "indices": 31,
          "material": 7,
          "mode": 4
        },
        {
          "attributes": {
            "POSITION": 32,
            "NORMAL": 33,
            "TEXCOORD_0": 34
          },
          "indices": 35,
          "material": 8,
          "mode": 4
        }
      ]
    }
  ],
  "nodes": [
    {
      "name": "73",
      "mesh": 0
    }
  ],
  "samplers": [
    {
      "magFilter": 9729,
      "minFilter": 9986,
      "wrapS": 10497,
      "wrapT": 10497
    }
  ],
  "scene": 0,
  "scenes": [
    {
      "nodes": [
        0
      ]
    }
  ],
  "textures": [
    {
      "name": "BLDSQ_JDZX_T052",
      "sampler": 0,
      "source": 0
    },
    {
      "name": "yaxing-22",
      "sampler": 0,
      "source": 1
    },
    {
      "name": "yaxing-11",
      "sampler": 0,
      "source": 2
    },
    {
      "name": "yaxing-13",
      "sampler": 0,
      "source": 3
    },
    {
      "name": "yaxing-18",
      "sampler": 0,
      "source": 4
    },
    {
      "name": "yaxing-19",
      "sampler": 0,
      "source": 5
    },
    {
      "name": "yaxing-17",
      "sampler": 0,
      "source": 6
    },
    {
      "name": "yaxing-12",
      "sampler": 0,
      "source": 7
    },
    {
      "name": "BLDSQ_JDZX_T051",
      "sampler": 0,
      "source": 8
    }
  ]
}
